<svg width="24" height="24" viewBox="0 0 24 24" fill="none" xmlns="http://www.w3.org/2000/svg">
<path d="M15.1114 8.72385L12.9737 2.91769C12.6683 2.30652 11.8743 1.45088 11.1414 2.91769C10.5408 4.1197 9.76253 6.36141 9.27701 7.86035C9.1 8.40684 8.69794 8.85271 8.16857 9.07576L3.20156 11.1686C2.5908 11.4741 1.73574 12.2076 3.20156 12.6965C4.43848 13.1091 6.77713 14.1309 8.27252 14.8073C8.74152 15.0194 9.10369 15.4126 9.28153 15.8956L11.1414 20.9473C11.4468 21.6604 12.2408 22.6586 12.9737 20.9473C13.7066 19.2361 14.5913 16.3621 15.1114 15.3116C15.6314 14.2612 18.6946 9.38316 20.8242 10.5924C24.1348 12.4724 18.9592 21.3291 2.22876 17.0632" stroke="#E9EAEB" stroke-width="1.94092" stroke-linecap="round"/>
</svg>
